<svg width="44" height="44" viewBox="0 0 44 44" fill="none" xmlns="http://www.w3.org/2000/svg">
<g id="Plus">
<path id="Symbol" d="M10.2693 22.1289C10.2693 23.2773 11.199 24.207 12.3474 24.207H19.9353V31.7949C19.9353 32.9297 20.8513 33.873 21.9998 33.873C23.1482 33.873 24.0779 32.9297 24.0779 31.7949V24.207H31.6658C32.8005 24.207 33.7302 23.2773 33.7302 22.1289C33.7302 20.9941 32.8005 20.0645 31.6658 20.0645H24.0779V12.4766C24.0779 11.3418 23.1482 10.3984 21.9998 10.3984C20.8513 10.3984 19.9353 11.3418 19.9353 12.4766V20.0645H12.3474C11.199 20.0645 10.2693 20.9941 10.2693 22.1289Z" fill="#48319D"/>
</g>
</svg>
